<svg version="1.1" id="Capa_1"
	xmlns="http://www.w3.org/2000/svg"
	xmlns:xlink="http://www.w3.org/1999/xlink" x="0px" y="0px" viewBox="0 0 512 512" style="enable-background:new 0 0 512 512;" xml:space="preserve">
	<path style="fill:#BA406F;" d="M466.98,294.752L291.089,482.183c-9.097,9.693-21.798,15.192-35.091,15.191l0,0
	c-13.292-0.001-25.991-5.499-35.086-15.191L45.02,294.752l-0.001-0.002C17.1,265,0,224.975,0,180.957
	c-0.001-91.846,75.038-166.63,166.884-166.33c32.803,0.107,63.37,9.709,89.097,26.203l0.012,0.018
	c25.728-16.501,56.299-26.111,89.107-26.221c91.851-0.309,166.901,74.477,166.9,166.33C512,224.976,494.9,265.001,466.98,294.752z" />
	<path style="fill:#EB4F96;" d="M255.998,497.374L255.998,497.374c-13.292-0.001-25.991-5.499-35.086-15.191L45.02,294.752
	l-0.001-0.002C17.1,265,0,224.975,0,180.957c-0.001-91.846,75.038-166.63,166.884-166.33c32.803,0.107,63.37,9.709,89.097,26.203
	l0.012,0.018L255.998,497.374z"/>
	<path style="fill:#D6EBEB;" d="M292.433,221.247l34.438-34.438c10.061-10.061,10.061-26.372,0-36.433s-26.372-10.061-36.433,0
	L256,184.814l-34.438-34.438c-10.061-10.061-26.373-10.061-36.433,0c-10.061,10.061-10.061,26.372,0,36.433l34.438,34.438
	l-34.438,34.438c-10.061,10.061-10.061,26.373,0,36.433c5.031,5.032,11.623,7.546,18.217,7.546c6.592,0,13.187-2.516,18.217-7.545
	L256,257.68l34.438,34.438c5.03,5.03,11.624,7.545,18.217,7.545s13.186-2.515,18.217-7.546c10.061-10.06,10.061-26.372,0-36.433
	L292.433,221.247z"/>
	<path style="fill:#F2FFFF;" d="M256,184.814l-34.438-34.438c-10.061-10.061-26.373-10.061-36.433,0
	c-10.061,10.061-10.061,26.372,0,36.433l34.438,34.438l-34.438,34.438c-10.061,10.061-10.061,26.373,0,36.433
	c5.031,5.032,11.623,7.546,18.217,7.546c6.592,0,13.187-2.516,18.217-7.545L256,257.68V184.814z"/>

</svg>
